<?xml version="1.0" encoding="UTF-8"?>
<svg id="Capa_1" data-name="Capa 1" xmlns="http://www.w3.org/2000/svg" viewBox="0 0 22.58 32">
  <defs>
    <style>
      .cls-1 {
        fill: #fff;
      }

      .cls-2 {
        stroke-width: .15px;
      }

      .cls-2, .cls-3 {
        fill: #24387a;
      }

      .cls-2, .cls-4 {
        stroke: #fff;
        stroke-miterlimit: 10;
      }

      .cls-4 {
        fill: none;
        stroke-width: .1px;
      }
    </style>
  </defs>
  <path class="cls-3" d="M.02,.02c7.51,0,15.02-.01,22.52-.02,.01,10.67,.03,21.33,.04,32-3.69-1.79-7.37-3.58-11.06-5.37-3.84,1.75-7.68,3.51-11.52,5.26C0,21.26,.01,10.64,.02,.02Z"/>
  <path class="cls-2" d="M.66,.8c7.09,0,14.18-.01,21.27-.02,.01,10.07,.02,20.15,.04,30.22-3.48-1.69-6.96-3.38-10.44-5.07-3.63,1.66-7.25,3.31-10.88,4.97,0-10.03,.01-20.06,.02-30.1Z"/>
  <g>
    <path class="cls-1" d="M3.94,14v-.3c.83-.09,.91-.13,.91-1v-4.03c0-.88-.09-.92-.91-1.01v-.3h2.81v.3c-.83,.09-.92,.13-.92,1.01v4.03c0,.87,.08,.91,.92,1v.3H3.94Z"/>
    <path class="cls-1" d="M11.35,10.39c1,.17,1.79,.65,1.79,1.63,0,.68-.39,1.24-.99,1.57-.53,.29-1.08,.4-1.8,.4h-2.58v-.3c.85-.08,.91-.17,.91-.98v-4.06c0-.85-.1-.93-.91-.99v-.3h2.76c.77,0,1.25,.13,1.59,.36,.36,.25,.61,.63,.61,1.14,0,.94-.79,1.39-1.38,1.53Zm-1.2-.12c1.1,0,1.54-.44,1.54-1.27,0-.75-.47-1.26-1.37-1.26-.28,0-.46,.03-.56,.1-.09,.06-.11,.17-.11,.48v1.95h.5Zm-.5,2.43c0,.74,.2,.93,.9,.93,.75,0,1.49-.44,1.49-1.49s-.69-1.49-1.92-1.49h-.47v2.05Z"/>
    <path class="cls-1" d="M17.74,8.93c-.18-.67-.47-1.35-1.42-1.35-.76,0-1.06,.55-1.06,1.09,0,.68,.44,1.03,1.29,1.47,1.2,.62,1.76,1.1,1.76,2.08,0,1.1-.94,1.93-2.29,1.93-.62,0-1.16-.17-1.59-.33-.08-.28-.21-1.04-.28-1.58l.33-.08c.2,.68,.68,1.61,1.73,1.61,.72,0,1.15-.49,1.15-1.15,0-.75-.41-1.07-1.3-1.56-1.07-.58-1.69-1.08-1.69-2.05s.77-1.8,2.15-1.8c.6,0,1.15,.15,1.37,.19,.04,.37,.09,.8,.17,1.46l-.33,.07Z"/>
  </g>
  <line class="cls-4" x1="3.77" y1="14.91" x2="18.6" y2="14.91"/>
  <g>
    <path class="cls-1" d="M5.51,17.07c-.04,.15-.12,.37-.17,.47-.09,.02-.33,.08-.57,.08-.75,0-1.13-.5-1.13-1.03,0-.63,.48-1.07,1.18-1.07,.27,0,.49,.06,.58,.07,.01,.14,.03,.33,.06,.48l-.1,.02c-.06-.21-.14-.34-.3-.4-.08-.04-.2-.06-.31-.06-.5,0-.76,.38-.76,.88,0,.59,.31,.97,.79,.97,.31,0,.46-.14,.62-.46l.1,.03Z"/>
    <path class="cls-1" d="M6.48,16.17c.4,0,.68,.3,.68,.69,0,.5-.37,.74-.68,.74-.43,0-.69-.34-.69-.69,0-.5,.39-.74,.7-.74Zm-.04,.11c-.18,0-.34,.17-.34,.54,0,.39,.16,.68,.41,.68,.18,0,.33-.13,.33-.56,0-.37-.14-.66-.4-.66Z"/>
    <path class="cls-1" d="M8.24,17.57v-.09c.17-.02,.19-.04,.19-.25v-.51c0-.22-.08-.35-.27-.35-.12,0-.23,.07-.32,.15v.73c0,.21,.02,.22,.19,.23v.09h-.68v-.09c.2-.02,.21-.03,.21-.24v-.64c0-.2-.02-.21-.18-.24v-.08c.16-.02,.32-.06,.46-.12,0,.07,0,.17,0,.24,.06-.04,.13-.09,.21-.14,.09-.06,.16-.09,.25-.09,.25,0,.4,.18,.4,.48v.59c0,.21,.02,.22,.19,.24v.09h-.65Z"/>
    <path class="cls-1" d="M9.86,16.58c-.06-.19-.14-.3-.33-.3-.1,0-.19,.07-.19,.19,0,.13,.09,.19,.26,.27,.26,.12,.4,.22,.4,.43,0,.29-.27,.43-.51,.43-.16,0-.31-.05-.37-.09-.01-.09-.04-.26-.05-.37l.09-.02c.06,.2,.17,.36,.38,.36,.12,0,.21-.08,.21-.2,0-.13-.08-.2-.25-.28-.21-.1-.39-.2-.39-.43s.19-.41,.49-.41c.13,0,.24,.03,.3,.04,0,.08,.03,.27,.05,.35l-.09,.02Z"/>
    <path class="cls-1" d="M11.69,17.49c-.15,.02-.33,.06-.49,.11v-.23c-.16,.13-.29,.23-.46,.23-.22,0-.39-.13-.39-.46v-.61c0-.16-.02-.18-.1-.2l-.08-.02v-.08c.14,0,.35-.04,.47-.06,0,.1,0,.25,0,.45v.43c0,.26,.13,.33,.27,.33,.11,0,.22-.04,.31-.14v-.72c0-.16-.03-.18-.13-.2h-.1v-.1c.19,0,.42-.04,.51-.06v1.03c0,.16,.02,.18,.14,.19h.08v.09Z"/>
    <path class="cls-1" d="M11.8,17.57v-.09c.19-.02,.22-.04,.22-.24v-1.47c0-.18-.02-.2-.21-.23v-.08c.18-.02,.37-.07,.48-.11v1.88c0,.2,.02,.22,.21,.24v.09h-.7Z"/>
    <path class="cls-1" d="M13.26,17.56c-.05,.03-.1,.04-.13,.04-.2,0-.32-.12-.32-.37v-.89h-.21v-.04s.07-.09,.07-.09h.14v-.26c.07-.06,.17-.15,.24-.21h.05c0,.13,0,.31,0,.47h.34s.02,.1-.02,.13h-.32v.78c0,.25,.1,.29,.18,.29,.07,0,.14-.02,.18-.05l.03,.09-.21,.11Z"/>
    <path class="cls-1" d="M14.26,16.17c.4,0,.68,.3,.68,.69,0,.5-.37,.74-.68,.74-.43,0-.69-.34-.69-.69,0-.5,.39-.74,.7-.74Zm-.04,.11c-.18,0-.34,.17-.34,.54,0,.39,.16,.68,.41,.68,.18,0,.33-.13,.33-.56,0-.37-.14-.66-.4-.66Z"/>
    <path class="cls-1" d="M15.86,17.57h-.73v-.09c.19-.02,.21-.03,.21-.23v-.65c0-.19-.01-.21-.19-.23v-.08c.16-.02,.3-.06,.46-.12v.34c.11-.17,.24-.33,.39-.33,.11,0,.18,.07,.18,.15s-.06,.16-.11,.19c-.03,.02-.06,.01-.08,0-.05-.05-.09-.08-.14-.08-.06,0-.17,.09-.23,.24v.58c0,.2,.02,.21,.25,.23v.09Z"/>
    <path class="cls-1" d="M17.43,17.3c-.2,.25-.42,.31-.52,.31-.38,0-.61-.31-.61-.67,0-.21,.08-.41,.21-.54,.13-.14,.3-.22,.46-.22,.27,0,.48,.24,.48,.48,0,.06-.01,.09-.06,.1-.06,.01-.46,.04-.82,.05,0,.4,.24,.57,.45,.57,.13,0,.24-.05,.36-.15l.05,.07Zm-.54-1.01c-.14,0-.27,.14-.31,.38,.16,0,.33,0,.5,0,.05,0,.07-.01,.07-.06,0-.16-.1-.31-.26-.31Z"/>
    <path class="cls-1" d="M18.44,16.58c-.06-.19-.14-.3-.33-.3-.1,0-.19,.07-.19,.19,0,.13,.09,.19,.26,.27,.26,.12,.4,.22,.4,.43,0,.29-.27,.43-.51,.43-.16,0-.31-.05-.37-.09-.01-.09-.04-.26-.05-.37l.09-.02c.06,.2,.17,.36,.38,.36,.12,0,.21-.08,.21-.2,0-.13-.08-.2-.25-.28-.21-.1-.39-.2-.39-.43s.19-.41,.49-.41c.13,0,.24,.03,.3,.04,0,.08,.03,.27,.05,.35l-.09,.02Z"/>
  </g>
  <line class="cls-4" x1="3.49" y1="18.19" x2="18.32" y2="18.19"/>
  <g>
    <path class="cls-1" d="M5.87,22.31v-.04c.1-.01,.11-.03,.09-.08-.02-.06-.05-.13-.08-.23h-.33c-.02,.07-.05,.13-.07,.19-.03,.1-.01,.11,.11,.13v.04h-.35v-.04c.1-.01,.12-.02,.17-.16l.31-.79h.05c.1,.25,.2,.54,.29,.8,.05,.13,.06,.14,.17,.16v.04h-.37Zm-.15-.81c-.05,.13-.1,.27-.15,.39h.28l-.14-.39Z"/>
    <path class="cls-1" d="M6.71,21.83c-.03-.09-.07-.15-.16-.15-.05,0-.09,.04-.09,.1,0,.07,.04,.1,.13,.13,.13,.06,.2,.11,.2,.21,0,.14-.13,.21-.25,.21-.08,0-.15-.02-.18-.04,0-.04-.02-.13-.03-.18h.04c.03,.09,.08,.17,.19,.17,.06,0,.11-.04,.11-.1,0-.07-.04-.1-.12-.14-.11-.05-.19-.1-.19-.21s.09-.2,.24-.2c.06,0,.11,.02,.15,.02,0,.04,.02,.13,.02,.17h-.04Z"/>
    <path class="cls-1" d="M7.44,22.19c-.1,.12-.2,.15-.25,.15-.18,0-.3-.15-.3-.33,0-.1,.04-.2,.1-.26,.06-.07,.15-.11,.23-.11,.13,0,.23,.11,.23,.23,0,.03,0,.04-.03,.05-.03,0-.22,.02-.4,.03,0,.2,.12,.29,.23,.29,.06,0,.12-.03,.18-.08l.02,.03Zm-.26-.5c-.07,0-.14,.07-.16,.19,.08,0,.17,0,.26,0,.03,0,.04,0,.04-.03,0-.08-.05-.15-.14-.15Z"/>
    <path class="cls-1" d="M7.93,21.83c-.03-.09-.07-.15-.16-.15-.05,0-.09,.04-.09,.1,0,.07,.04,.1,.13,.13,.13,.06,.2,.11,.2,.21,0,.14-.13,.21-.25,.21-.08,0-.15-.02-.18-.04,0-.04-.02-.13-.03-.18h.04c.03,.09,.08,.17,.19,.17,.06,0,.11-.04,.11-.1,0-.07-.04-.1-.12-.14-.11-.05-.19-.1-.19-.21s.09-.2,.24-.2c.06,0,.11,.02,.15,.02,0,.04,.02,.13,.02,.17h-.04Z"/>
    <path class="cls-1" d="M8.45,21.63c.19,0,.33,.14,.33,.34,0,.24-.18,.36-.33,.36-.21,0-.34-.17-.34-.34,0-.25,.19-.36,.34-.36Zm-.02,.05c-.09,0-.18,.09-.18,.26,0,.19,.08,.33,.21,.33,.09,0,.17-.07,.17-.28,0-.18-.07-.32-.21-.32Z"/>
    <path class="cls-1" d="M9.22,22.31h-.35v-.04c.1,0,.1-.02,.1-.11v-.31c0-.1,0-.1-.09-.11v-.04c.07-.01,.14-.03,.21-.06v.17c.05-.08,.12-.16,.19-.16,.06,0,.09,.03,.09,.07,0,.03-.02,.07-.05,.08-.02,0-.03,0-.04,0-.02-.02-.04-.04-.07-.04-.03,0-.09,.05-.12,.12v.28c0,.1,0,.11,.12,.12v.04Z"/>
    <path class="cls-1" d="M9.98,22.19c-.1,.12-.2,.15-.25,.15-.18,0-.3-.15-.3-.33,0-.1,.04-.2,.1-.26,.06-.07,.15-.11,.23-.11,.13,0,.23,.11,.23,.23,0,.03,0,.04-.03,.05-.03,0-.22,.02-.4,.03,0,.2,.12,.29,.23,.29,.06,0,.12-.03,.18-.08l.02,.03Zm-.26-.5c-.07,0-.14,.07-.16,.19,.08,0,.17,0,.26,0,.03,0,.04,0,.04-.03,0-.08-.05-.15-.14-.15Z"/>
    <path class="cls-1" d="M10.47,21.83c-.03-.09-.07-.15-.16-.15-.05,0-.09,.04-.09,.1,0,.07,.04,.1,.13,.13,.13,.06,.2,.11,.2,.21,0,.14-.13,.21-.25,.21-.08,0-.15-.02-.18-.04,0-.04-.02-.13-.03-.18h.04c.03,.09,.08,.17,.19,.17,.06,0,.11-.04,.11-.1,0-.07-.04-.1-.12-.14-.11-.05-.19-.1-.19-.21s.09-.2,.24-.2c.06,0,.11,.02,.15,.02,0,.04,.02,.13,.02,.17h-.04Z"/>
    <path class="cls-1" d="M11.55,22.19c-.1,.12-.2,.15-.25,.15-.18,0-.3-.15-.3-.33,0-.1,.04-.2,.1-.26,.06-.07,.15-.11,.23-.11,.13,0,.23,.11,.23,.23,0,.03,0,.04-.03,.05-.03,0-.22,.02-.4,.03,0,.2,.12,.29,.23,.29,.06,0,.12-.03,.18-.08l.02,.03Zm-.26-.5c-.07,0-.14,.07-.16,.19,.08,0,.17,0,.26,0,.03,0,.04,0,.04-.03,0-.08-.05-.15-.14-.15Z"/>
    <path class="cls-1" d="M12.08,22.31v-.04c.09,0,.1-.02,.1-.12v-.25c0-.11-.04-.18-.14-.18-.06,0-.12,.04-.17,.08v.35c0,.1,0,.11,.1,.12v.04h-.33v-.04c.1-.01,.11-.02,.11-.12v-.31c0-.1-.01-.1-.09-.12v-.04c.07-.01,.15-.03,.21-.06v.12s.06-.04,.1-.07c.04-.03,.08-.05,.13-.05,.12,0,.2,.09,.2,.24v.29c0,.1,0,.11,.1,.12v.04h-.31Z"/>
    <path class="cls-1" d="M13.38,21.56c-.03-.1-.07-.2-.21-.2-.12,0-.16,.09-.16,.16,0,.1,.07,.16,.19,.22,.18,.09,.26,.16,.26,.31,0,.16-.14,.28-.33,.28-.09,0-.17-.03-.23-.05-.01-.04-.03-.15-.04-.23h.05c.03,.09,.1,.22,.25,.22,.11,0,.18-.08,.18-.17,0-.12-.06-.16-.2-.24-.16-.09-.25-.16-.25-.3s.11-.26,.31-.26c.08,0,.17,.02,.2,.03,0,.05,.01,.11,.02,.21h-.05Z"/>
    <path class="cls-1" d="M14.15,22.19c-.1,.12-.2,.15-.25,.15-.18,0-.3-.15-.3-.33,0-.1,.04-.2,.1-.26,.06-.07,.15-.11,.23-.11,.13,0,.23,.11,.23,.23,0,.03,0,.04-.03,.05-.03,0-.22,.02-.4,.03,0,.2,.12,.29,.23,.29,.06,0,.12-.03,.18-.08l.02,.03Zm-.26-.5c-.07,0-.14,.07-.16,.19,.08,0,.17,0,.26,0,.03,0,.04,0,.04-.03,0-.08-.05-.15-.14-.15Z"/>
    <path class="cls-1" d="M14.47,22.09s-.05,.06-.05,.08c0,.03,.03,.06,.09,.06,.06,0,.12,0,.17,0,.1,0,.22,.03,.22,.18,0,.16-.19,.31-.39,.31-.17,0-.26-.1-.27-.19,0-.03,.01-.06,.04-.09,.03-.03,.09-.08,.12-.11-.05-.02-.09-.05-.11-.08-.01-.02-.02-.05-.02-.07,.06-.02,.11-.06,.14-.1l.05,.02Zm.07,.02c-.14,0-.26-.09-.26-.23,0-.17,.15-.25,.27-.25,.05,0,.1,.01,.15,.04,.07,0,.16-.01,.2-.02h0s-.03,.08-.06,.09c-.02,0-.07,0-.09,0,.03,.03,.04,.08,.04,.14,0,.16-.14,.24-.27,.24Zm.03,.22c-.07,0-.11,0-.13,.03-.04,.03-.07,.08-.07,.12,0,.08,.09,.15,.2,.15,.14,0,.23-.07,.23-.17,0-.05-.02-.09-.07-.11-.04-.02-.09-.02-.15-.02Zm-.03-.66c-.07,0-.13,.06-.13,.18s.06,.2,.14,.2c.07,0,.13-.06,.13-.18s-.06-.2-.14-.2Z"/>
    <path class="cls-1" d="M15.69,22.28c-.07,.01-.15,.03-.23,.05v-.12c-.08,.07-.15,.12-.23,.12-.1,0-.19-.06-.19-.23v-.29c0-.08-.01-.09-.05-.1h-.04v-.05c.07,0,.16-.02,.22-.03,0,.05,0,.12,0,.22v.21c0,.13,.07,.17,.14,.17,.06,0,.11-.02,.16-.07v-.35c0-.08-.02-.09-.07-.1h-.05v-.05c.1,0,.2-.02,.24-.03v.51c0,.08,.01,.09,.07,.09h.04v.04Z"/>
    <path class="cls-1" d="M16.11,22.31h-.35v-.04c.1,0,.1-.02,.1-.11v-.31c0-.1,0-.1-.09-.11v-.04c.07-.01,.14-.03,.21-.06v.17c.05-.08,.12-.16,.19-.16,.06,0,.09,.03,.09,.07,0,.03-.02,.07-.05,.08-.02,0-.03,0-.04,0-.02-.02-.04-.04-.07-.04-.03,0-.09,.05-.12,.12v.28c0,.1,0,.11,.12,.12v.04Z"/>
    <path class="cls-1" d="M16.66,21.63c.19,0,.33,.14,.33,.34,0,.24-.18,.36-.33,.36-.21,0-.34-.17-.34-.34,0-.25,.19-.36,.34-.36Zm-.02,.05c-.09,0-.18,.09-.18,.26,0,.19,.08,.33,.21,.33,.09,0,.17-.07,.17-.28,0-.18-.07-.32-.21-.32Z"/>
    <path class="cls-1" d="M17.49,21.83c-.03-.09-.07-.15-.16-.15-.05,0-.09,.04-.09,.1,0,.07,.04,.1,.13,.13,.13,.06,.2,.11,.2,.21,0,.14-.13,.21-.25,.21-.08,0-.15-.02-.18-.04,0-.04-.02-.13-.03-.18h.04c.03,.09,.08,.17,.19,.17,.06,0,.11-.04,.11-.1,0-.07-.04-.1-.12-.14-.11-.05-.19-.1-.19-.21s.09-.2,.24-.2c.06,0,.11,.02,.15,.02,0,.04,.02,.13,.02,.17h-.04Z"/>
    <path class="cls-1" d="M9.69,23.53c-.11,.01-.12,.04-.17,.11-.04,.06-.08,.12-.13,.2,.07,.06,.21,.23,.26,.3v.02c-.09,0-.18-.04-.2-.06-.02-.02-.09-.09-.14-.14-.11,.15-.21,.2-.32,.2-.2,0-.3-.14-.3-.27,0-.14,.08-.2,.23-.29-.07-.06-.12-.13-.12-.21,0-.14,.11-.24,.25-.24,.13,0,.23,.09,.23,.21,0,.06-.03,.11-.07,.13-.03,.02-.07,.05-.13,.08,.05,.04,.17,.15,.27,.24,.03-.05,.07-.1,.09-.17,.03-.07,.02-.09-.09-.1v-.04h.35v.04Zm-.67,.52c.1,0,.16-.03,.24-.13-.08-.09-.18-.18-.31-.29-.11,.07-.14,.14-.14,.21,0,.14,.11,.21,.21,.21Zm0-.86c-.08,0-.12,.06-.12,.15,0,.08,.04,.12,.13,.2,.08-.06,.12-.11,.12-.19,0-.09-.05-.16-.13-.16Z"/>
    <path class="cls-1" d="M10.8,23.38s-.03-.08-.05-.11c-.03-.05-.05-.06-.14-.06h-.16s-.05,0-.05,.05v.35h.19c.11,0,.12-.02,.14-.12h.05v.32h-.05c-.02-.11-.03-.13-.14-.13h-.19v.27c0,.13,.02,.14,.15,.15v.04h-.42v-.04c.12,0,.14-.02,.14-.15v-.6c0-.13-.02-.14-.14-.15v-.04h.48c.14,0,.19,0,.21,0,0,.05,0,.16,.02,.23h-.05Z"/>
    <path class="cls-1" d="M10.93,24.13v-.04c.1,0,.11-.02,.11-.12v-.31c0-.09,0-.1-.1-.11v-.04c.08-.01,.15-.03,.21-.06v.52c0,.1,.01,.11,.11,.12v.04h-.33Zm.16-.83s-.08-.04-.08-.08c0-.05,.04-.08,.08-.08s.08,.03,.08,.08c0,.04-.03,.08-.08,.08Z"/>
    <path class="cls-1" d="M11.82,24.15s-.06-.01-.07-.03c-.02-.02-.03-.04-.04-.07-.06,.04-.13,.1-.18,.1-.11,0-.18-.09-.18-.19,0-.07,.04-.12,.12-.15,.09-.03,.21-.07,.24-.1v-.03c0-.11-.05-.17-.13-.17-.03,0-.06,.02-.07,.03-.02,.02-.03,.05-.04,.1,0,.02-.02,.03-.04,.03-.03,0-.07-.03-.07-.07,0-.02,.02-.04,.05-.06,.04-.03,.13-.09,.22-.11,.05,0,.09,.01,.13,.04,.05,.05,.08,.1,.08,.18v.29c0,.07,.03,.09,.05,.09,.02,0,.04,0,.05-.02l.02,.04-.13,.08Zm-.11-.38s-.11,.05-.14,.06c-.06,.03-.09,.05-.09,.11,0,.08,.06,.12,.11,.12,.04,0,.09-.02,.12-.05v-.24Z"/>
    <path class="cls-1" d="M12.44,24.13v-.04c.09,0,.1-.02,.1-.12v-.25c0-.11-.04-.18-.14-.18-.06,0-.12,.04-.17,.08v.35c0,.1,0,.11,.1,.12v.04h-.33v-.04c.1-.01,.11-.02,.11-.12v-.31c0-.1-.01-.1-.09-.12v-.04c.07-.01,.15-.03,.21-.06v.12s.06-.04,.1-.07c.04-.03,.08-.05,.13-.05,.12,0,.2,.09,.2,.24v.29c0,.1,0,.11,.1,.12v.04h-.31Z"/>
    <path class="cls-1" d="M13.4,23.94c-.02,.06-.05,.15-.07,.19h-.51v-.02c.12-.19,.25-.39,.38-.59h-.15c-.11,0-.13,.02-.18,.15h-.04c.02-.07,.04-.16,.05-.23h.03s.03,.03,.08,.03h.36v.02c-.11,.18-.24,.39-.37,.59h.16c.11,0,.15-.03,.22-.16l.04,.02Z"/>
    <path class="cls-1" d="M13.96,24.15s-.06-.01-.07-.03c-.02-.02-.03-.04-.04-.07-.06,.04-.13,.1-.18,.1-.11,0-.18-.09-.18-.19,0-.07,.04-.12,.12-.15,.09-.03,.21-.07,.24-.1v-.03c0-.11-.05-.17-.13-.17-.03,0-.06,.02-.07,.03-.02,.02-.03,.05-.04,.1,0,.02-.02,.03-.04,.03-.03,0-.07-.03-.07-.07,0-.02,.02-.04,.05-.06,.04-.03,.13-.09,.22-.11,.05,0,.09,.01,.13,.04,.05,.05,.08,.1,.08,.18v.29c0,.07,.03,.09,.05,.09,.02,0,.04,0,.05-.02l.02,.04-.13,.08Zm-.11-.38s-.11,.05-.14,.06c-.06,.03-.09,.05-.09,.11,0,.08,.06,.12,.11,.12,.04,0,.09-.02,.12-.05v-.24Z"/>
    <path class="cls-1" d="M14.53,23.65c-.03-.09-.07-.15-.16-.15-.05,0-.09,.04-.09,.1,0,.07,.04,.1,.13,.13,.13,.06,.2,.11,.2,.21,0,.14-.13,.21-.25,.21-.08,0-.15-.02-.18-.04,0-.04-.02-.13-.03-.18h.04c.03,.09,.08,.17,.19,.17,.06,0,.11-.04,.11-.1,0-.07-.04-.1-.12-.14-.11-.05-.19-.1-.19-.21s.09-.2,.24-.2c.06,0,.11,.02,.15,.02,0,.04,.02,.13,.02,.17h-.04Z"/>
  </g>
</svg>